<svg width="844" height="681" viewBox="0 0 844 681" fill="none" xmlns="http://www.w3.org/2000/svg">
<g clip-path="url(#clip0_317_325)">
<g filter="url(#filter0_f_317_325)">
<ellipse cx="435" cy="286.5" rx="137" ry="122" fill="#09D27F" fill-opacity="0.59"/>
</g>
<path d="M255 122.5C255 113.663 262.163 106.5 271 106.5H599C607.837 106.5 615 113.663 615 122.5V450.5C615 459.337 607.837 466.5 599 466.5H271C262.163 466.5 255 459.337 255 450.5V122.5Z" fill="white" fill-opacity="0.02"/>
<path d="M279.97 137.5L275 126.5H277.686L281.776 135.577H281.977L286.067 126.5H288.753L283.783 137.5H279.97Z" fill="white"/>
<path d="M289.827 137.5V126.5H301.928V128.5H292.297V130.931H301.033V132.931H292.297V135.5H301.928V137.5H289.827Z" fill="white"/>
<path d="M303.619 137.5V126.5H312.865C314.007 126.5 314.892 126.787 315.52 127.362C316.158 127.936 316.477 128.808 316.477 129.977C316.477 130.972 316.245 131.751 315.782 132.315C315.319 132.879 314.661 133.233 313.807 133.377L316.353 137.5H313.544L311.183 133.454H306.089V137.5H303.619ZM312.572 128.5H306.089V131.438L312.572 131.454C313.025 131.454 313.369 131.341 313.606 131.115C313.853 130.89 313.976 130.51 313.976 129.977C313.976 129.433 313.853 129.054 313.606 128.838C313.369 128.613 313.025 128.5 312.572 128.5Z" fill="white"/>
<path d="M318.331 137.5V126.5H320.801V137.5H318.331Z" fill="white"/>
<path d="M322.573 128.5V126.5H336.156V128.5H330.29V137.5H327.821V128.5H322.573Z" fill="white"/>
<path d="M342.696 137.5V133.577L336.846 126.5H339.902L343.931 131.485L347.944 126.5H351L345.181 133.562V137.5H342.696Z" fill="white"/>
<path d="M402.204 168.364V180H400.096V168.364H402.204ZM408.11 180H404.166V168.364H408.189C409.345 168.364 410.337 168.597 411.166 169.062C412 169.525 412.64 170.189 413.087 171.057C413.534 171.924 413.757 172.962 413.757 174.17C413.757 175.383 413.532 176.424 413.081 177.295C412.634 178.167 411.988 178.835 411.144 179.301C410.303 179.767 409.291 180 408.11 180ZM406.274 178.176H408.007C408.818 178.176 409.494 178.028 410.036 177.733C410.577 177.434 410.985 176.989 411.257 176.398C411.53 175.803 411.666 175.061 411.666 174.17C411.666 173.28 411.53 172.542 411.257 171.955C410.985 171.364 410.581 170.922 410.047 170.631C409.517 170.335 408.858 170.188 408.07 170.188H406.274V178.176ZM415.44 180V168.364H423.008V170.131H417.548V173.29H422.616V175.057H417.548V178.233H423.054V180H415.44ZM434.401 168.364V180H432.526L427.044 172.074H426.947V180H424.839V168.364H426.725L432.203 176.295H432.305V168.364H434.401ZM435.867 170.131V168.364H445.151V170.131H441.554V180H439.464V170.131H435.867ZM448.729 168.364V180H446.621V168.364H448.729ZM450.18 170.131V168.364H459.464V170.131H455.868V180H453.777V170.131H450.18ZM460.139 168.364H462.519L465.366 173.511H465.479L468.326 168.364H470.707L466.474 175.659V180H464.371V175.659L460.139 168.364Z" fill="white"/>
<path d="M373 212C373 203.163 380.163 196 389 196H481C489.837 196 497 203.163 497 212V304C497 312.837 489.837 320 481 320H389C380.163 320 373 312.837 373 304V212Z" fill="white" fill-opacity="0.02"/>
<path d="M468.774 288.187C468.544 288.587 468.212 288.918 467.813 289.148C467.414 289.379 466.961 289.5 466.5 289.5H403.5C403.04 289.499 402.587 289.378 402.189 289.147C401.79 288.917 401.459 288.585 401.229 288.186C400.999 287.787 400.878 287.335 400.878 286.874C400.878 286.414 400.999 285.961 401.23 285.562C406.227 276.923 413.928 270.728 422.915 267.791C418.47 265.145 415.016 261.112 413.084 256.313C411.152 251.513 410.849 246.212 412.222 241.224C413.594 236.236 416.566 231.836 420.681 228.7C424.796 225.564 429.827 223.866 435 223.866C440.174 223.866 445.205 225.564 449.32 228.7C453.435 231.836 456.406 236.236 457.779 241.224C459.151 246.212 458.848 251.513 456.916 256.313C454.985 261.112 451.531 265.145 447.085 267.791C456.072 270.728 463.774 276.923 468.771 285.562C469.002 285.961 469.124 286.414 469.124 286.874C469.125 287.335 469.004 287.788 468.774 288.187Z" fill="white"/>
<path d="M410.71 335.273V344H409.129V335.273H410.71ZM415.14 344H412.182V335.273H415.199C416.066 335.273 416.81 335.447 417.432 335.797C418.057 336.143 418.537 336.642 418.873 337.293C419.208 337.943 419.376 338.722 419.376 339.628C419.376 340.537 419.207 341.318 418.868 341.972C418.533 342.625 418.049 343.126 417.415 343.476C416.785 343.825 416.026 344 415.14 344ZM413.763 342.632H415.063C415.671 342.632 416.178 342.521 416.584 342.3C416.991 342.075 417.296 341.741 417.501 341.298C417.705 340.852 417.807 340.295 417.807 339.628C417.807 338.96 417.705 338.406 417.501 337.966C417.296 337.523 416.993 337.192 416.593 336.973C416.195 336.751 415.701 336.641 415.11 336.641H413.763V342.632ZM427.273 339.001V340.271H423.344V339.001H427.273ZM434.508 344.119C433.894 344.119 433.348 344.014 432.871 343.804C432.397 343.594 432.022 343.301 431.746 342.926C431.471 342.551 431.324 342.118 431.307 341.626H432.91C432.924 341.862 433.002 342.068 433.144 342.244C433.286 342.418 433.475 342.553 433.711 342.649C433.946 342.746 434.211 342.794 434.503 342.794C434.816 342.794 435.093 342.74 435.334 342.632C435.576 342.521 435.765 342.368 435.901 342.172C436.037 341.976 436.104 341.75 436.101 341.494C436.104 341.23 436.036 340.997 435.897 340.795C435.758 340.594 435.556 340.436 435.292 340.322C435.03 340.209 434.715 340.152 434.346 340.152H433.574V338.933H434.346C434.65 338.933 434.915 338.881 435.142 338.776C435.373 338.67 435.553 338.523 435.684 338.332C435.814 338.139 435.878 337.916 435.875 337.663C435.878 337.416 435.823 337.202 435.709 337.02C435.598 336.835 435.441 336.692 435.236 336.589C435.035 336.487 434.797 336.436 434.525 336.436C434.258 336.436 434.01 336.484 433.783 336.581C433.556 336.678 433.373 336.815 433.233 336.994C433.094 337.17 433.02 337.381 433.012 337.625H431.49C431.502 337.136 431.642 336.707 431.912 336.338C432.185 335.966 432.549 335.676 433.003 335.469C433.458 335.259 433.968 335.153 434.533 335.153C435.115 335.153 435.621 335.263 436.05 335.482C436.482 335.697 436.816 335.989 437.052 336.355C437.287 336.722 437.405 337.126 437.405 337.57C437.408 338.061 437.263 338.473 436.971 338.805C436.681 339.138 436.3 339.355 435.829 339.457V339.526C436.442 339.611 436.912 339.838 437.239 340.207C437.569 340.574 437.732 341.03 437.729 341.575C437.729 342.064 437.59 342.501 437.311 342.888C437.036 343.271 436.655 343.572 436.169 343.791C435.686 344.01 435.133 344.119 434.508 344.119ZM439.037 344V335.273H442.31C442.98 335.273 443.543 335.389 443.997 335.622C444.455 335.855 444.8 336.182 445.033 336.602C445.269 337.02 445.386 337.507 445.386 338.064C445.386 338.624 445.267 339.109 445.029 339.521C444.793 339.93 444.445 340.247 443.984 340.472C443.524 340.693 442.959 340.804 442.288 340.804H439.957V339.491H442.075C442.467 339.491 442.788 339.437 443.038 339.33C443.288 339.219 443.473 339.058 443.592 338.848C443.715 338.635 443.776 338.374 443.776 338.064C443.776 337.754 443.715 337.49 443.592 337.271C443.47 337.05 443.284 336.882 443.034 336.768C442.784 336.652 442.462 336.594 442.067 336.594H440.618V344H439.037ZM443.546 340.045L445.706 344H443.942L441.82 340.045H443.546ZM449.713 344.119C449.295 344.116 448.887 344.044 448.49 343.902C448.092 343.757 447.734 343.523 447.416 343.199C447.097 342.872 446.845 342.439 446.657 341.899C446.47 341.357 446.377 340.685 446.38 339.884C446.38 339.136 446.46 338.47 446.619 337.885C446.778 337.3 447.007 336.805 447.305 336.402C447.603 335.996 447.963 335.686 448.383 335.473C448.806 335.26 449.279 335.153 449.802 335.153C450.35 335.153 450.836 335.261 451.259 335.477C451.686 335.693 452.029 335.989 452.291 336.364C452.552 336.736 452.714 337.156 452.776 337.625H451.221C451.142 337.29 450.978 337.023 450.731 336.824C450.487 336.622 450.177 336.521 449.802 336.521C449.197 336.521 448.731 336.784 448.404 337.31C448.08 337.835 447.917 338.557 447.914 339.474H447.974C448.113 339.224 448.293 339.01 448.515 338.831C448.737 338.652 448.987 338.514 449.265 338.418C449.546 338.318 449.843 338.268 450.156 338.268C450.667 338.268 451.126 338.391 451.532 338.635C451.941 338.879 452.265 339.216 452.504 339.645C452.742 340.071 452.86 340.56 452.857 341.111C452.86 341.685 452.73 342.2 452.465 342.658C452.201 343.112 451.833 343.47 451.362 343.732C450.89 343.993 450.34 344.122 449.713 344.119ZM449.704 342.841C450.014 342.841 450.291 342.766 450.535 342.615C450.779 342.464 450.972 342.261 451.115 342.006C451.257 341.75 451.326 341.463 451.323 341.145C451.326 340.832 451.258 340.55 451.119 340.297C450.982 340.044 450.793 339.844 450.552 339.696C450.311 339.548 450.035 339.474 449.725 339.474C449.495 339.474 449.281 339.518 449.082 339.607C448.883 339.695 448.71 339.817 448.562 339.973C448.414 340.126 448.298 340.305 448.213 340.51C448.13 340.712 448.088 340.928 448.085 341.158C448.088 341.462 448.159 341.741 448.298 341.997C448.437 342.253 448.629 342.457 448.873 342.611C449.117 342.764 449.394 342.841 449.704 342.841ZM453.546 335.273H455.332L457.467 339.134H457.552L459.687 335.273H461.473L458.298 340.744V344H456.721V340.744L453.546 335.273Z" fill="white"/>
<g filter="url(#filter3_d_317_325)">
<path d="M289 403.5C289 391.35 298.85 381.5 311 381.5V381.5C323.15 381.5 333 391.35 333 403.5V403.5C333 415.65 323.15 425.5 311 425.5V425.5C298.85 425.5 289 415.65 289 403.5V403.5Z" fill="white" fill-opacity="0.01" shape-rendering="crispEdges"/>
<path d="M318.187 406.71L311 410.902L303.812 406.71C303.67 406.64 303.506 406.626 303.354 406.671C303.202 406.717 303.072 406.819 302.993 406.957C302.913 407.094 302.889 407.257 302.925 407.412C302.961 407.567 303.055 407.702 303.187 407.79L310.687 412.165C310.783 412.221 310.891 412.25 311.002 412.25C311.113 412.25 311.221 412.221 311.317 412.165L318.817 407.79C318.889 407.749 318.952 407.695 319.003 407.629C319.054 407.564 319.091 407.489 319.113 407.409C319.134 407.329 319.14 407.246 319.129 407.164C319.118 407.082 319.091 407.003 319.049 406.931C319.007 406.86 318.952 406.797 318.886 406.747C318.82 406.697 318.745 406.661 318.664 406.641C318.584 406.62 318.501 406.616 318.419 406.628C318.337 406.64 318.258 406.668 318.187 406.71Z" fill="white"/>
<path d="M318.187 402.96L311 407.152L303.812 402.96C303.67 402.89 303.506 402.876 303.354 402.921C303.202 402.967 303.072 403.069 302.993 403.207C302.913 403.344 302.889 403.507 302.925 403.662C302.961 403.817 303.055 403.952 303.187 404.04L310.687 408.415C310.783 408.471 310.891 408.5 311.002 408.5C311.113 408.5 311.221 408.471 311.317 408.415L318.817 404.04C318.889 403.999 318.952 403.945 319.003 403.879C319.054 403.814 319.091 403.739 319.113 403.659C319.134 403.579 319.14 403.496 319.129 403.414C319.118 403.332 319.091 403.253 319.049 403.181C319.007 403.11 318.952 403.047 318.886 402.997C318.82 402.947 318.745 402.911 318.664 402.891C318.584 402.87 318.501 402.866 318.419 402.878C318.337 402.89 318.258 402.918 318.187 402.96Z" fill="white"/>
<path d="M303.187 400.29L310.687 404.665C310.783 404.721 310.892 404.75 311.002 404.75C311.113 404.75 311.222 404.721 311.317 404.665L318.817 400.29C318.912 400.235 318.99 400.156 319.044 400.061C319.099 399.966 319.127 399.859 319.127 399.75C319.127 399.641 319.099 399.533 319.044 399.439C318.99 399.344 318.912 399.265 318.817 399.21L311.317 394.835C311.222 394.779 311.113 394.75 311.002 394.75C310.892 394.75 310.783 394.779 310.687 394.835L303.187 399.21C303.093 399.265 303.015 399.344 302.96 399.439C302.906 399.533 302.877 399.641 302.877 399.75C302.877 399.859 302.906 399.966 302.96 400.061C303.015 400.156 303.093 400.235 303.187 400.29Z" fill="white"/>
</g>
<path d="M292.012 438.773L294.603 446.119H294.705L297.296 438.773H298.404L295.199 447.5H294.108L290.904 438.773H292.012ZM301.522 447.636C300.891 447.636 300.347 447.497 299.89 447.219C299.435 446.938 299.084 446.545 298.837 446.043C298.593 445.537 298.471 444.949 298.471 444.278C298.471 443.608 298.593 443.017 298.837 442.506C299.084 441.991 299.428 441.591 299.868 441.304C300.311 441.014 300.829 440.869 301.419 440.869C301.76 440.869 302.097 440.926 302.429 441.04C302.762 441.153 303.064 441.338 303.337 441.594C303.61 441.847 303.827 442.182 303.989 442.599C304.151 443.017 304.232 443.531 304.232 444.142V444.568H299.186V443.699H303.209C303.209 443.33 303.135 443 302.988 442.71C302.843 442.42 302.635 442.192 302.365 442.024C302.098 441.857 301.783 441.773 301.419 441.773C301.019 441.773 300.672 441.872 300.38 442.071C300.09 442.267 299.867 442.523 299.711 442.838C299.554 443.153 299.476 443.491 299.476 443.852V444.432C299.476 444.926 299.561 445.345 299.732 445.689C299.905 446.03 300.145 446.29 300.452 446.469C300.759 446.645 301.115 446.733 301.522 446.733C301.786 446.733 302.025 446.696 302.238 446.622C302.454 446.545 302.64 446.432 302.796 446.281C302.952 446.128 303.073 445.937 303.158 445.71L304.13 445.983C304.027 446.312 303.856 446.602 303.614 446.852C303.373 447.099 303.074 447.293 302.719 447.432C302.364 447.568 301.965 447.636 301.522 447.636ZM305.522 447.5V440.955H306.493V441.943H306.562C306.681 441.619 306.897 441.357 307.209 441.155C307.522 440.953 307.874 440.852 308.266 440.852C308.34 440.852 308.432 440.854 308.543 440.857C308.654 440.859 308.738 440.864 308.795 440.869V441.892C308.76 441.884 308.682 441.871 308.56 441.854C308.441 441.834 308.314 441.824 308.181 441.824C307.863 441.824 307.579 441.891 307.329 442.024C307.081 442.155 306.885 442.337 306.741 442.57C306.598 442.8 306.527 443.062 306.527 443.358V447.5H305.522ZM314.383 442.42L313.48 442.676C313.423 442.526 313.339 442.379 313.228 442.237C313.12 442.092 312.972 441.973 312.785 441.879C312.597 441.786 312.357 441.739 312.065 441.739C311.664 441.739 311.33 441.831 311.063 442.016C310.799 442.197 310.667 442.429 310.667 442.71C310.667 442.96 310.758 443.158 310.94 443.303C311.122 443.447 311.406 443.568 311.792 443.665L312.764 443.903C313.349 444.045 313.785 444.263 314.072 444.555C314.359 444.845 314.502 445.219 314.502 445.676C314.502 446.051 314.394 446.386 314.178 446.682C313.965 446.977 313.667 447.21 313.284 447.381C312.9 447.551 312.454 447.636 311.945 447.636C311.278 447.636 310.725 447.491 310.288 447.202C309.85 446.912 309.573 446.489 309.457 445.932L310.411 445.693C310.502 446.045 310.674 446.31 310.927 446.486C311.183 446.662 311.517 446.75 311.928 446.75C312.397 446.75 312.769 446.651 313.045 446.452C313.323 446.25 313.463 446.009 313.463 445.727C313.463 445.5 313.383 445.31 313.224 445.156C313.065 445 312.82 444.884 312.491 444.807L311.4 444.551C310.801 444.409 310.36 444.189 310.079 443.891C309.801 443.589 309.661 443.213 309.661 442.761C309.661 442.392 309.765 442.065 309.972 441.781C310.183 441.497 310.468 441.274 310.829 441.112C311.193 440.95 311.605 440.869 312.065 440.869C312.713 440.869 313.221 441.011 313.59 441.295C313.963 441.58 314.227 441.955 314.383 442.42ZM315.776 447.5V440.955H316.782V447.5H315.776ZM316.288 439.864C316.091 439.864 315.922 439.797 315.78 439.663C315.641 439.53 315.572 439.369 315.572 439.182C315.572 438.994 315.641 438.834 315.78 438.7C315.922 438.567 316.091 438.5 316.288 438.5C316.484 438.5 316.651 438.567 316.79 438.7C316.932 438.834 317.003 438.994 317.003 439.182C317.003 439.369 316.932 439.53 316.79 439.663C316.651 439.797 316.484 439.864 316.288 439.864ZM321.043 447.636C320.452 447.636 319.934 447.496 319.488 447.214C319.044 446.933 318.698 446.54 318.448 446.034C318.201 445.528 318.077 444.937 318.077 444.261C318.077 443.58 318.201 442.984 318.448 442.476C318.698 441.967 319.044 441.572 319.488 441.291C319.934 441.01 320.452 440.869 321.043 440.869C321.634 440.869 322.151 441.01 322.594 441.291C323.04 441.572 323.387 441.967 323.634 442.476C323.884 442.984 324.009 443.58 324.009 444.261C324.009 444.937 323.884 445.528 323.634 446.034C323.387 446.54 323.04 446.933 322.594 447.214C322.151 447.496 321.634 447.636 321.043 447.636ZM321.043 446.733C321.492 446.733 321.861 446.618 322.151 446.388C322.441 446.158 322.655 445.855 322.794 445.48C322.934 445.105 323.003 444.699 323.003 444.261C323.003 443.824 322.934 443.416 322.794 443.038C322.655 442.661 322.441 442.355 322.151 442.122C321.861 441.889 321.492 441.773 321.043 441.773C320.594 441.773 320.225 441.889 319.935 442.122C319.645 442.355 319.431 442.661 319.291 443.038C319.152 443.416 319.083 443.824 319.083 444.261C319.083 444.699 319.152 445.105 319.291 445.48C319.431 445.855 319.645 446.158 319.935 446.388C320.225 446.618 320.594 446.733 321.043 446.733ZM326.31 443.562V447.5H325.304V440.955H326.276V441.977H326.361C326.514 441.645 326.747 441.378 327.06 441.176C327.372 440.972 327.776 440.869 328.27 440.869C328.713 440.869 329.101 440.96 329.433 441.142C329.766 441.321 330.024 441.594 330.209 441.96C330.393 442.324 330.486 442.784 330.486 443.341V447.5H329.48V443.409C329.48 442.895 329.347 442.494 329.08 442.207C328.812 441.918 328.446 441.773 327.98 441.773C327.659 441.773 327.372 441.842 327.119 441.982C326.869 442.121 326.672 442.324 326.527 442.591C326.382 442.858 326.31 443.182 326.31 443.562Z" fill="white" fill-opacity="0.7"/>
<path d="M373 381.5L373 450.5" stroke="white" stroke-opacity="0.3"/>
<g filter="url(#filter4_d_317_325)">
<path d="M413 403.5C413 391.35 422.85 381.5 435 381.5V381.5C447.15 381.5 457 391.35 457 403.5V403.5C457 415.65 447.15 425.5 435 425.5V425.5C422.85 425.5 413 415.65 413 403.5V403.5Z" fill="white" fill-opacity="0.01" shape-rendering="crispEdges"/>
<path d="M435 395.375C433.393 395.375 431.822 395.852 430.486 396.744C429.15 397.637 428.108 398.906 427.493 400.391C426.879 401.875 426.718 403.509 427.031 405.085C427.345 406.661 428.118 408.109 429.255 409.245C430.391 410.382 431.839 411.155 433.415 411.469C434.991 411.782 436.625 411.621 438.109 411.007C439.594 410.392 440.863 409.35 441.756 408.014C442.648 406.678 443.125 405.107 443.125 403.5C443.123 401.346 442.266 399.281 440.743 397.757C439.219 396.234 437.154 395.377 435 395.375ZM441.122 400.375H438.337C437.986 399.088 437.395 397.879 436.595 396.813C437.561 397.045 438.467 397.483 439.248 398.098C440.03 398.713 440.669 399.49 441.123 400.375H441.122ZM441.875 403.5C441.876 404.134 441.788 404.765 441.615 405.375H438.606C438.798 404.132 438.798 402.868 438.606 401.625H441.615C441.788 402.235 441.876 402.866 441.875 403.5ZM435 396.859C435.936 397.861 436.631 399.064 437.031 400.375H432.969C433.369 399.064 434.064 397.861 435 396.859ZM432.969 406.625H437.031C436.631 407.936 435.936 409.139 435 410.141C434.064 409.139 433.369 407.936 432.969 406.625ZM432.664 405.375C432.449 404.134 432.449 402.866 432.664 401.625H437.342C437.557 402.866 437.557 404.134 437.342 405.375H432.664ZM436.598 410.188C437.398 409.121 437.989 407.912 438.34 406.625H441.126C440.672 407.51 440.032 408.287 439.25 408.902C438.468 409.517 437.562 409.956 436.595 410.188H436.598Z" fill="white"/>
</g>
<path d="M427.204 443.136C427.204 444.057 427.038 444.852 426.705 445.523C426.373 446.193 425.917 446.71 425.338 447.074C424.758 447.438 424.096 447.619 423.352 447.619C422.607 447.619 421.946 447.438 421.366 447.074C420.786 446.71 420.33 446.193 419.998 445.523C419.666 444.852 419.5 444.057 419.5 443.136C419.5 442.216 419.666 441.42 419.998 440.75C420.33 440.08 420.786 439.562 421.366 439.199C421.946 438.835 422.607 438.653 423.352 438.653C424.096 438.653 424.758 438.835 425.338 439.199C425.917 439.562 426.373 440.08 426.705 440.75C427.038 441.42 427.204 442.216 427.204 443.136ZM426.181 443.136C426.181 442.381 426.055 441.743 425.802 441.223C425.552 440.703 425.213 440.31 424.784 440.043C424.357 439.776 423.88 439.642 423.352 439.642C422.823 439.642 422.345 439.776 421.916 440.043C421.49 440.31 421.15 440.703 420.897 441.223C420.647 441.743 420.522 442.381 420.522 443.136C420.522 443.892 420.647 444.53 420.897 445.05C421.15 445.57 421.49 445.963 421.916 446.23C422.345 446.497 422.823 446.631 423.352 446.631C423.88 446.631 424.357 446.497 424.784 446.23C425.213 445.963 425.552 445.57 425.802 445.05C426.055 444.53 426.181 443.892 426.181 443.136ZM428.605 447.5V440.955H429.576V441.943H429.644C429.764 441.619 429.98 441.357 430.292 441.155C430.605 440.953 430.957 440.852 431.349 440.852C431.423 440.852 431.515 440.854 431.626 440.857C431.737 440.859 431.821 440.864 431.877 440.869V441.892C431.843 441.884 431.765 441.871 431.643 441.854C431.524 441.834 431.397 441.824 431.264 441.824C430.946 441.824 430.661 441.891 430.411 442.024C430.164 442.155 429.968 442.337 429.823 442.57C429.681 442.8 429.61 443.062 429.61 443.358V447.5H428.605ZM432.83 447.5V440.955H433.835V447.5H432.83ZM433.341 439.864C433.145 439.864 432.976 439.797 432.834 439.663C432.695 439.53 432.625 439.369 432.625 439.182C432.625 438.994 432.695 438.834 432.834 438.7C432.976 438.567 433.145 438.5 433.341 438.5C433.537 438.5 433.705 438.567 433.844 438.7C433.986 438.834 434.057 438.994 434.057 439.182C434.057 439.369 433.986 439.53 433.844 439.663C433.705 439.797 433.537 439.864 433.341 439.864ZM438.079 450.091C437.593 450.091 437.176 450.028 436.826 449.903C436.477 449.781 436.186 449.619 435.953 449.418C435.723 449.219 435.539 449.006 435.403 448.778L436.204 448.216C436.295 448.335 436.41 448.472 436.549 448.625C436.689 448.781 436.879 448.916 437.12 449.03C437.365 449.146 437.684 449.205 438.079 449.205C438.608 449.205 439.044 449.077 439.387 448.821C439.731 448.565 439.903 448.165 439.903 447.619V446.29H439.818C439.744 446.409 439.639 446.557 439.503 446.733C439.369 446.906 439.176 447.061 438.923 447.197C438.673 447.331 438.335 447.398 437.909 447.398C437.38 447.398 436.906 447.273 436.485 447.023C436.068 446.773 435.737 446.409 435.493 445.932C435.251 445.455 435.13 444.875 435.13 444.193C435.13 443.523 435.248 442.939 435.484 442.442C435.72 441.942 436.048 441.555 436.468 441.283C436.889 441.007 437.375 440.869 437.926 440.869C438.352 440.869 438.69 440.94 438.94 441.082C439.193 441.222 439.386 441.381 439.52 441.56C439.656 441.736 439.761 441.881 439.835 441.994H439.937V440.955H440.909V447.688C440.909 448.25 440.781 448.707 440.525 449.06C440.272 449.415 439.931 449.675 439.503 449.839C439.076 450.007 438.602 450.091 438.079 450.091ZM438.045 446.494C438.449 446.494 438.789 446.402 439.068 446.217C439.346 446.033 439.558 445.767 439.703 445.42C439.848 445.074 439.92 444.659 439.92 444.176C439.92 443.705 439.849 443.288 439.707 442.928C439.565 442.567 439.355 442.284 439.076 442.08C438.798 441.875 438.454 441.773 438.045 441.773C437.619 441.773 437.264 441.881 436.98 442.097C436.699 442.312 436.487 442.602 436.345 442.966C436.206 443.33 436.136 443.733 436.136 444.176C436.136 444.631 436.207 445.033 436.349 445.382C436.494 445.729 436.707 446.001 436.988 446.2C437.272 446.396 437.625 446.494 438.045 446.494ZM442.51 447.5V440.955H443.515V447.5H442.51ZM443.021 439.864C442.825 439.864 442.656 439.797 442.514 439.663C442.375 439.53 442.305 439.369 442.305 439.182C442.305 438.994 442.375 438.834 442.514 438.7C442.656 438.567 442.825 438.5 443.021 438.5C443.217 438.5 443.385 438.567 443.524 438.7C443.666 438.834 443.737 438.994 443.737 439.182C443.737 439.369 443.666 439.53 443.524 439.663C443.385 439.797 443.217 439.864 443.021 439.864ZM446.123 443.562V447.5H445.117V440.955H446.089V441.977H446.174C446.328 441.645 446.561 441.378 446.873 441.176C447.186 440.972 447.589 440.869 448.083 440.869C448.526 440.869 448.914 440.96 449.247 441.142C449.579 441.321 449.837 441.594 450.022 441.96C450.207 442.324 450.299 442.784 450.299 443.341V447.5H449.293V443.409C449.293 442.895 449.16 442.494 448.893 442.207C448.626 441.918 448.259 441.773 447.793 441.773C447.472 441.773 447.186 441.842 446.933 441.982C446.683 442.121 446.485 442.324 446.34 442.591C446.195 442.858 446.123 443.182 446.123 443.562Z" fill="white" fill-opacity="0.7"/>
<path d="M497 381.5L497 450.5" stroke="white" stroke-opacity="0.3"/>
<g filter="url(#filter5_d_317_325)">
<path d="M537 403.5C537 391.35 546.85 381.5 559 381.5V381.5C571.15 381.5 581 391.35 581 403.5V403.5C581 415.65 571.15 425.5 559 425.5V425.5C546.85 425.5 537 415.65 537 403.5V403.5Z" fill="white" fill-opacity="0.01" shape-rendering="crispEdges"/>
<path d="M561.849 408.784C561.911 408.878 561.946 408.987 561.95 409.099C561.955 409.212 561.929 409.324 561.875 409.423C561.822 409.522 561.742 409.604 561.646 409.662C561.549 409.72 561.438 409.75 561.326 409.75H549.799C549.687 409.75 549.576 409.72 549.479 409.662C549.383 409.604 549.303 409.522 549.25 409.423C549.196 409.324 549.17 409.212 549.175 409.099C549.179 408.987 549.214 408.878 549.276 408.784C550.156 407.429 551.45 406.396 552.965 405.837C552.127 405.28 551.491 404.467 551.151 403.52C550.811 402.573 550.784 401.542 551.076 400.579C551.367 399.615 551.961 398.771 552.769 398.172C553.577 397.572 554.556 397.248 555.563 397.248C556.569 397.248 557.548 397.572 558.356 398.172C559.164 398.771 559.758 399.615 560.049 400.579C560.341 401.542 560.314 402.573 559.974 403.52C559.634 404.467 558.998 405.28 558.16 405.837C559.675 406.396 560.969 407.429 561.849 408.784ZM568.717 408.772C567.837 407.423 566.546 406.394 565.035 405.837C566.024 405.171 566.722 404.153 566.987 402.991C567.252 401.828 567.063 400.609 566.461 399.58C565.858 398.551 564.886 397.791 563.742 397.454C562.598 397.116 561.369 397.228 560.305 397.765C560.264 397.786 560.228 397.816 560.2 397.852C560.173 397.888 560.153 397.93 560.143 397.975C560.133 398.02 560.133 398.066 560.143 398.111C560.153 398.155 560.173 398.197 560.201 398.234C560.992 399.221 561.447 400.436 561.498 401.7C561.549 402.965 561.194 404.212 560.484 405.26C560.439 405.329 560.422 405.412 560.437 405.493C560.453 405.574 560.5 405.646 560.568 405.692C561.493 406.338 562.285 407.155 562.9 408.101C563.148 408.481 563.25 408.938 563.185 409.387C563.178 409.432 563.18 409.478 563.193 409.521C563.205 409.565 563.226 409.606 563.256 409.64C563.285 409.674 563.322 409.702 563.363 409.721C563.404 409.74 563.448 409.75 563.494 409.75H568.205C568.342 409.75 568.476 409.705 568.585 409.621C568.695 409.537 568.773 409.42 568.809 409.287C568.83 409.199 568.833 409.108 568.818 409.02C568.802 408.931 568.768 408.846 568.717 408.772Z" fill="white"/>
</g>
<path d="M549.221 443.136C549.221 444.057 549.055 444.852 548.722 445.523C548.39 446.193 547.934 446.71 547.354 447.074C546.775 447.438 546.113 447.619 545.368 447.619C544.624 447.619 543.962 447.438 543.383 447.074C542.803 446.71 542.347 446.193 542.015 445.523C541.682 444.852 541.516 444.057 541.516 443.136C541.516 442.216 541.682 441.42 542.015 440.75C542.347 440.08 542.803 439.562 543.383 439.199C543.962 438.835 544.624 438.653 545.368 438.653C546.113 438.653 546.775 438.835 547.354 439.199C547.934 439.562 548.39 440.08 548.722 440.75C549.055 441.42 549.221 442.216 549.221 443.136ZM548.198 443.136C548.198 442.381 548.072 441.743 547.819 441.223C547.569 440.703 547.229 440.31 546.8 440.043C546.374 439.776 545.897 439.642 545.368 439.642C544.84 439.642 544.361 439.776 543.932 440.043C543.506 440.31 543.167 440.703 542.914 441.223C542.664 441.743 542.539 442.381 542.539 443.136C542.539 443.892 542.664 444.53 542.914 445.05C543.167 445.57 543.506 445.963 543.932 446.23C544.361 446.497 544.84 446.631 545.368 446.631C545.897 446.631 546.374 446.497 546.8 446.23C547.229 445.963 547.569 445.57 547.819 445.05C548.072 444.53 548.198 443.892 548.198 443.136ZM552.104 447.5L550.11 440.955H551.167L552.582 445.966H552.65L554.048 440.955H555.121L556.502 445.949H556.57L557.985 440.955H559.042L557.048 447.5H556.059L554.627 442.472H554.525L553.093 447.5H552.104ZM561.137 443.562V447.5H560.131V440.955H561.103V441.977H561.188C561.342 441.645 561.575 441.378 561.887 441.176C562.2 440.972 562.603 440.869 563.097 440.869C563.54 440.869 563.928 440.96 564.261 441.142C564.593 441.321 564.852 441.594 565.036 441.96C565.221 442.324 565.313 442.784 565.313 443.341V447.5H564.308V443.409C564.308 442.895 564.174 442.494 563.907 442.207C563.64 441.918 563.273 441.773 562.808 441.773C562.487 441.773 562.2 441.842 561.947 441.982C561.697 442.121 561.499 442.324 561.354 442.591C561.21 442.858 561.137 443.182 561.137 443.562ZM569.655 447.636C569.025 447.636 568.481 447.497 568.023 447.219C567.569 446.938 567.218 446.545 566.971 446.043C566.726 445.537 566.604 444.949 566.604 444.278C566.604 443.608 566.726 443.017 566.971 442.506C567.218 441.991 567.561 441.591 568.002 441.304C568.445 441.014 568.962 440.869 569.553 440.869C569.894 440.869 570.231 440.926 570.563 441.04C570.895 441.153 571.198 441.338 571.471 441.594C571.743 441.847 571.961 442.182 572.123 442.599C572.285 443.017 572.365 443.531 572.365 444.142V444.568H567.32V443.699H571.343C571.343 443.33 571.269 443 571.121 442.71C570.976 442.42 570.769 442.192 570.499 442.024C570.232 441.857 569.917 441.773 569.553 441.773C569.152 441.773 568.806 441.872 568.513 442.071C568.223 442.267 568 442.523 567.844 442.838C567.688 443.153 567.61 443.491 567.61 443.852V444.432C567.61 444.926 567.695 445.345 567.865 445.689C568.039 446.03 568.279 446.29 568.586 446.469C568.892 446.645 569.249 446.733 569.655 446.733C569.919 446.733 570.158 446.696 570.371 446.622C570.587 446.545 570.773 446.432 570.929 446.281C571.086 446.128 571.206 445.937 571.292 445.71L572.263 445.983C572.161 446.312 571.989 446.602 571.748 446.852C571.506 447.099 571.208 447.293 570.853 447.432C570.498 447.568 570.098 447.636 569.655 447.636ZM573.655 447.5V440.955H574.627V441.943H574.695C574.814 441.619 575.03 441.357 575.343 441.155C575.655 440.953 576.008 440.852 576.4 440.852C576.473 440.852 576.566 440.854 576.677 440.857C576.787 440.859 576.871 440.864 576.928 440.869V441.892C576.894 441.884 576.816 441.871 576.694 441.854C576.574 441.834 576.448 441.824 576.314 441.824C575.996 441.824 575.712 441.891 575.462 442.024C575.215 442.155 575.019 442.337 574.874 442.57C574.732 442.8 574.661 443.062 574.661 443.358V447.5H573.655Z" fill="white" fill-opacity="0.7"/>
<path d="M255 365.5L616 365.5" stroke="white" stroke-opacity="0.3"/>
<path d="M684 290.5H662.173C653.337 290.5 646.173 283.337 646.173 274.5V169.5C646.173 160.663 639.01 153.5 630.173 153.5H615" stroke="#C2D4CB" stroke-opacity="0.3"/>
<path d="M684 291.5H662.173C653.337 291.5 646.173 298.663 646.173 307.5V406.5C646.173 415.337 639.01 422.5 630.173 422.5H615" stroke="#C2D4CB" stroke-opacity="0.3"/>
<g filter="url(#filter6_f_317_325)">
<ellipse cx="721.5" cy="278.5" rx="62.5" ry="55" fill="#09D27F" fill-opacity="0.59"/>
</g>
<path d="M684 239.5C684 230.663 691.163 223.5 700 223.5H788C796.837 223.5 804 230.663 804 239.5V327.5C804 336.337 796.837 343.5 788 343.5H700C691.163 343.5 684 336.337 684 327.5V239.5Z" fill="white" fill-opacity="0.02"/>
<path d="M770.769 269.231L753.269 251.731C753.036 251.499 752.761 251.315 752.457 251.19C752.154 251.064 751.828 251 751.5 251H721.5C720.174 251 718.902 251.527 717.964 252.464C717.027 253.402 716.5 254.674 716.5 256V311C716.5 312.326 717.027 313.598 717.964 314.536C718.902 315.473 720.174 316 721.5 316H766.5C767.826 316 769.098 315.473 770.036 314.536C770.973 313.598 771.5 312.326 771.5 311V271C771.5 270.672 771.436 270.346 771.31 270.043C771.185 269.739 771.001 269.464 770.769 269.231ZM754 259.534L762.966 268.5H754V259.534ZM766.5 311H721.5V256H749V271C749 271.663 749.263 272.299 749.732 272.768C750.201 273.237 750.837 273.5 751.5 273.5H766.5V311Z" fill="white"/>
<path d="M743.505 277.5C744.712 277.5 745.682 278.493 745.655 279.699L745.37 292.437C745.348 293.453 744.517 294.265 743.501 294.265C742.483 294.265 741.653 293.452 741.631 292.435L741.354 279.698C741.328 278.492 742.299 277.5 743.505 277.5ZM743.5 301.5C742.811 301.5 742.22 301.253 741.727 300.758C741.242 300.263 741 299.66 741 298.949C741 298.254 741.242 297.658 741.727 297.164C742.22 296.669 742.811 296.422 743.5 296.422C744.174 296.422 744.758 296.669 745.25 297.164C745.75 297.658 746 298.254 746 298.949C746 299.421 745.883 299.85 745.648 300.236C745.42 300.623 745.117 300.932 744.739 301.164C744.367 301.388 743.955 301.5 743.5 301.5Z" fill="white"/>
<path d="M714.053 370.5V358.864H718.417C719.311 358.864 720.061 359.03 720.667 359.364C721.277 359.697 721.737 360.155 722.047 360.739C722.362 361.318 722.519 361.977 722.519 362.716C722.519 363.462 722.362 364.125 722.047 364.705C721.733 365.284 721.269 365.741 720.655 366.074C720.042 366.403 719.286 366.568 718.388 366.568H715.496V364.835H718.104C718.627 364.835 719.055 364.744 719.388 364.562C719.722 364.381 719.968 364.131 720.127 363.812C720.29 363.494 720.371 363.129 720.371 362.716C720.371 362.303 720.29 361.939 720.127 361.625C719.968 361.311 719.72 361.066 719.383 360.892C719.049 360.714 718.619 360.625 718.093 360.625H716.161V370.5H714.053ZM723.939 370.5V361.773H725.933V363.227H726.024C726.183 362.723 726.456 362.335 726.842 362.062C727.233 361.786 727.678 361.648 728.178 361.648C728.291 361.648 728.418 361.653 728.558 361.665C728.702 361.672 728.822 361.686 728.916 361.705V363.597C728.829 363.566 728.691 363.54 728.502 363.517C728.316 363.491 728.136 363.477 727.962 363.477C727.587 363.477 727.25 363.559 726.95 363.722C726.655 363.881 726.422 364.102 726.252 364.386C726.081 364.67 725.996 364.998 725.996 365.369V370.5H723.939ZM733.41 370.67C732.558 370.67 731.819 370.483 731.194 370.108C730.569 369.733 730.084 369.208 729.74 368.534C729.399 367.86 729.228 367.072 729.228 366.17C729.228 365.269 729.399 364.479 729.74 363.801C730.084 363.123 730.569 362.597 731.194 362.222C731.819 361.847 732.558 361.659 733.41 361.659C734.262 361.659 735.001 361.847 735.626 362.222C736.251 362.597 736.734 363.123 737.075 363.801C737.42 364.479 737.592 365.269 737.592 366.17C737.592 367.072 737.42 367.86 737.075 368.534C736.734 369.208 736.251 369.733 735.626 370.108C735.001 370.483 734.262 370.67 733.41 370.67ZM733.422 369.023C733.884 369.023 734.27 368.896 734.581 368.642C734.891 368.384 735.122 368.04 735.274 367.608C735.429 367.176 735.507 366.695 735.507 366.165C735.507 365.631 735.429 365.148 735.274 364.716C735.122 364.28 734.891 363.934 734.581 363.676C734.27 363.419 733.884 363.29 733.422 363.29C732.948 363.29 732.554 363.419 732.24 363.676C731.929 363.934 731.696 364.28 731.541 364.716C731.389 365.148 731.314 365.631 731.314 366.165C731.314 366.695 731.389 367.176 731.541 367.608C731.696 368.04 731.929 368.384 732.24 368.642C732.554 368.896 732.948 369.023 733.422 369.023ZM739.109 370.5V358.864H741.165V363.216H741.251C741.357 363.004 741.506 362.778 741.7 362.54C741.893 362.297 742.154 362.091 742.484 361.92C742.813 361.746 743.234 361.659 743.745 361.659C744.419 361.659 745.027 361.831 745.569 362.176C746.114 362.517 746.546 363.023 746.864 363.693C747.186 364.36 747.347 365.178 747.347 366.148C747.347 367.106 747.19 367.92 746.876 368.591C746.561 369.261 746.133 369.773 745.592 370.125C745.05 370.477 744.436 370.653 743.751 370.653C743.251 370.653 742.836 370.57 742.506 370.403C742.177 370.237 741.912 370.036 741.711 369.801C741.514 369.562 741.361 369.337 741.251 369.125H741.131V370.5H739.109ZM741.126 366.136C741.126 366.701 741.205 367.195 741.364 367.619C741.527 368.044 741.76 368.375 742.063 368.614C742.37 368.848 742.741 368.966 743.177 368.966C743.631 368.966 744.012 368.845 744.319 368.602C744.626 368.356 744.857 368.021 745.012 367.597C745.171 367.169 745.251 366.682 745.251 366.136C745.251 365.595 745.173 365.114 745.018 364.693C744.862 364.273 744.631 363.943 744.325 363.705C744.018 363.466 743.635 363.347 743.177 363.347C742.737 363.347 742.364 363.462 742.058 363.693C741.751 363.924 741.518 364.248 741.359 364.665C741.203 365.081 741.126 365.572 741.126 366.136ZM750.833 358.864V370.5H748.776V358.864H750.833ZM756.491 370.67C755.616 370.67 754.861 370.489 754.224 370.125C753.592 369.758 753.105 369.239 752.764 368.568C752.423 367.894 752.253 367.1 752.253 366.188C752.253 365.29 752.423 364.502 752.764 363.824C753.109 363.142 753.59 362.612 754.207 362.233C754.825 361.85 755.55 361.659 756.383 361.659C756.921 361.659 757.429 361.746 757.906 361.92C758.387 362.091 758.811 362.356 759.179 362.716C759.55 363.076 759.842 363.534 760.054 364.091C760.266 364.644 760.372 365.303 760.372 366.068V366.699H753.219V365.312H758.4C758.397 364.919 758.311 364.568 758.145 364.261C757.978 363.951 757.745 363.706 757.446 363.528C757.15 363.35 756.806 363.261 756.412 363.261C755.991 363.261 755.622 363.364 755.304 363.568C754.986 363.769 754.738 364.034 754.56 364.364C754.385 364.689 754.296 365.047 754.293 365.438V366.648C754.293 367.155 754.385 367.591 754.571 367.955C754.757 368.314 755.016 368.591 755.349 368.784C755.683 368.973 756.073 369.068 756.52 369.068C756.819 369.068 757.09 369.027 757.332 368.943C757.575 368.856 757.785 368.729 757.963 368.562C758.141 368.396 758.275 368.189 758.366 367.943L760.287 368.159C760.166 368.667 759.935 369.11 759.594 369.489C759.257 369.864 758.825 370.155 758.298 370.364C757.772 370.568 757.169 370.67 756.491 370.67ZM761.792 370.5V361.773H763.758V363.256H763.86C764.042 362.756 764.343 362.366 764.764 362.085C765.184 361.801 765.686 361.659 766.269 361.659C766.86 361.659 767.358 361.803 767.764 362.091C768.173 362.375 768.461 362.763 768.627 363.256H768.718C768.911 362.771 769.237 362.384 769.696 362.097C770.158 361.805 770.705 361.659 771.338 361.659C772.141 361.659 772.796 361.913 773.303 362.42C773.811 362.928 774.065 363.669 774.065 364.642V370.5H772.002V364.96C772.002 364.419 771.858 364.023 771.571 363.773C771.283 363.519 770.93 363.392 770.514 363.392C770.018 363.392 769.629 363.547 769.349 363.858C769.072 364.165 768.934 364.564 768.934 365.057V370.5H766.917V364.875C766.917 364.424 766.781 364.064 766.508 363.795C766.239 363.527 765.887 363.392 765.451 363.392C765.156 363.392 764.887 363.468 764.644 363.619C764.402 363.767 764.209 363.977 764.065 364.25C763.921 364.519 763.849 364.833 763.849 365.193V370.5H761.792Z" fill="white"/>
<path d="M684 418.5C684 409.663 691.163 402.5 700 402.5H788C796.837 402.5 804 409.663 804 418.5V506.5C804 515.337 796.837 522.5 788 522.5H700C691.163 522.5 684 515.337 684 506.5V418.5Z" fill="white" fill-opacity="0.02"/>
<path d="M770.769 448.231L753.269 430.731C753.036 430.499 752.761 430.315 752.457 430.19C752.154 430.064 751.828 430 751.5 430H721.5C720.174 430 718.902 430.527 717.964 431.464C717.027 432.402 716.5 433.674 716.5 435V490C716.5 491.326 717.027 492.598 717.964 493.536C718.902 494.473 720.174 495 721.5 495H766.5C767.826 495 769.098 494.473 770.036 493.536C770.973 492.598 771.5 491.326 771.5 490V450C771.5 449.672 771.436 449.346 771.31 449.043C771.185 448.739 771.001 448.464 770.769 448.231ZM754 438.534L762.966 447.5H754V438.534ZM766.5 490H721.5V435H749V450C749 450.663 749.263 451.299 749.732 451.768C750.201 452.237 750.837 452.5 751.5 452.5H766.5V490ZM756.5 465C756.5 465.663 756.237 466.299 755.768 466.768C755.299 467.237 754.663 467.5 754 467.5H734C733.337 467.5 732.701 467.237 732.232 466.768C731.763 466.299 731.5 465.663 731.5 465C731.5 464.337 731.763 463.701 732.232 463.232C732.701 462.763 733.337 462.5 734 462.5H754C754.663 462.5 755.299 462.763 755.768 463.232C756.237 463.701 756.5 464.337 756.5 465ZM756.5 475C756.5 475.663 756.237 476.299 755.768 476.768C755.299 477.237 754.663 477.5 754 477.5H734C733.337 477.5 732.701 477.237 732.232 476.768C731.763 476.299 731.5 475.663 731.5 475C731.5 474.337 731.763 473.701 732.232 473.232C732.701 472.763 733.337 472.5 734 472.5H754C754.663 472.5 755.299 472.763 755.768 473.232C756.237 473.701 756.5 474.337 756.5 475Z" fill="white"/>
<path d="M725.72 537.864L728.748 547.023H728.867L731.89 537.864H734.208L730.106 549.5H727.504L723.407 537.864H725.72ZM736.935 549.676C736.382 549.676 735.884 549.578 735.441 549.381C735.001 549.18 734.653 548.884 734.395 548.494C734.141 548.104 734.015 547.623 734.015 547.051C734.015 546.559 734.106 546.152 734.287 545.83C734.469 545.508 734.717 545.25 735.032 545.057C735.346 544.864 735.7 544.718 736.094 544.619C736.492 544.517 736.903 544.443 737.327 544.398C737.838 544.345 738.253 544.297 738.571 544.256C738.89 544.21 739.121 544.142 739.265 544.051C739.412 543.956 739.486 543.811 739.486 543.614V543.58C739.486 543.152 739.359 542.82 739.106 542.585C738.852 542.35 738.486 542.233 738.009 542.233C737.505 542.233 737.106 542.343 736.81 542.562C736.518 542.782 736.321 543.042 736.219 543.341L734.299 543.068C734.45 542.538 734.7 542.095 735.049 541.739C735.397 541.379 735.823 541.11 736.327 540.932C736.831 540.75 737.388 540.659 737.998 540.659C738.418 540.659 738.837 540.708 739.253 540.807C739.67 540.905 740.051 541.068 740.395 541.295C740.74 541.519 741.016 541.824 741.225 542.21C741.437 542.597 741.543 543.08 741.543 543.659V549.5H739.566V548.301H739.498C739.373 548.544 739.196 548.771 738.969 548.983C738.746 549.191 738.463 549.36 738.123 549.489C737.785 549.614 737.39 549.676 736.935 549.676ZM737.469 548.165C737.882 548.165 738.24 548.083 738.543 547.92C738.846 547.754 739.079 547.534 739.242 547.261C739.409 546.989 739.492 546.691 739.492 546.369V545.341C739.427 545.394 739.318 545.443 739.162 545.489C739.011 545.534 738.84 545.574 738.651 545.608C738.462 545.642 738.274 545.672 738.088 545.699C737.903 545.725 737.742 545.748 737.606 545.767C737.299 545.809 737.024 545.877 736.782 545.972C736.539 546.066 736.348 546.199 736.208 546.369C736.068 546.536 735.998 546.752 735.998 547.017C735.998 547.396 736.136 547.682 736.412 547.875C736.689 548.068 737.041 548.165 737.469 548.165ZM745.348 537.864V549.5H743.291V537.864H745.348ZM752.706 545.83V540.773H754.762V549.5H752.768V547.949H752.677C752.48 548.437 752.156 548.837 751.706 549.148C751.259 549.458 750.707 549.614 750.052 549.614C749.48 549.614 748.975 549.487 748.535 549.233C748.1 548.975 747.759 548.602 747.512 548.114C747.266 547.621 747.143 547.027 747.143 546.33V540.773H749.2V546.011C749.2 546.564 749.351 547.004 749.654 547.33C749.957 547.655 750.355 547.818 750.848 547.818C751.151 547.818 751.444 547.744 751.728 547.597C752.012 547.449 752.245 547.229 752.427 546.938C752.613 546.642 752.706 546.273 752.706 545.83ZM760.421 549.67C759.546 549.67 758.79 549.489 758.154 549.125C757.521 548.758 757.035 548.239 756.694 547.568C756.353 546.894 756.182 546.1 756.182 545.188C756.182 544.29 756.353 543.502 756.694 542.824C757.039 542.142 757.52 541.612 758.137 541.233C758.754 540.85 759.48 540.659 760.313 540.659C760.851 540.659 761.359 540.746 761.836 540.92C762.317 541.091 762.741 541.356 763.109 541.716C763.48 542.076 763.771 542.534 763.984 543.091C764.196 543.644 764.302 544.303 764.302 545.068V545.699H757.148V544.312H762.33C762.326 543.919 762.241 543.568 762.074 543.261C761.908 542.951 761.675 542.706 761.376 542.528C761.08 542.35 760.735 542.261 760.342 542.261C759.921 542.261 759.552 542.364 759.234 542.568C758.915 542.769 758.667 543.034 758.489 543.364C758.315 543.689 758.226 544.047 758.222 544.438V545.648C758.222 546.155 758.315 546.591 758.501 546.955C758.686 547.314 758.946 547.591 759.279 547.784C759.612 547.973 760.003 548.068 760.449 548.068C760.749 548.068 761.02 548.027 761.262 547.943C761.504 547.856 761.715 547.729 761.893 547.562C762.071 547.396 762.205 547.189 762.296 546.943L764.217 547.159C764.095 547.667 763.864 548.11 763.523 548.489C763.186 548.864 762.754 549.155 762.228 549.364C761.701 549.568 761.099 549.67 760.421 549.67Z" fill="white"/>
<path d="M684 68.5C684 59.6634 691.163 52.5 700 52.5H788C796.837 52.5 804 59.6634 804 68.5V156.5C804 165.337 796.837 172.5 788 172.5H700C691.163 172.5 684 165.337 684 156.5V68.5Z" fill="white" fill-opacity="0.02"/>
<path d="M770.769 98.2313L753.269 80.7313C753.036 80.4992 752.761 80.3151 752.457 80.1897C752.154 80.0642 751.828 79.9997 751.5 80H721.5C720.174 80 718.902 80.5268 717.964 81.4645C717.027 82.4021 716.5 83.6739 716.5 85V140C716.5 141.326 717.027 142.598 717.964 143.536C718.902 144.473 720.174 145 721.5 145H766.5C767.826 145 769.098 144.473 770.036 143.536C770.973 142.598 771.5 141.326 771.5 140V100C771.5 99.6716 771.436 99.3464 771.31 99.0429C771.185 98.7394 771.001 98.4636 770.769 98.2313ZM754 88.5344L762.966 97.5H754V88.5344ZM766.5 140H721.5V85H749V100C749 100.663 749.263 101.299 749.732 101.768C750.201 102.237 750.837 102.5 751.5 102.5H766.5V140ZM756.5 115C756.5 115.663 756.237 116.299 755.768 116.768C755.299 117.237 754.663 117.5 754 117.5H734C733.337 117.5 732.701 117.237 732.232 116.768C731.763 116.299 731.5 115.663 731.5 115C731.5 114.337 731.763 113.701 732.232 113.232C732.701 112.763 733.337 112.5 734 112.5H754C754.663 112.5 755.299 112.763 755.768 113.232C756.237 113.701 756.5 114.337 756.5 115ZM756.5 125C756.5 125.663 756.237 126.299 755.768 126.768C755.299 127.237 754.663 127.5 754 127.5H734C733.337 127.5 732.701 127.237 732.232 126.768C731.763 126.299 731.5 125.663 731.5 125C731.5 124.337 731.763 123.701 732.232 123.232C732.701 122.763 733.337 122.5 734 122.5H754C754.663 122.5 755.299 122.763 755.768 123.232C756.237 123.701 756.5 124.337 756.5 125Z" fill="white"/>
<path d="M725.72 187.864L728.748 197.023H728.867L731.89 187.864H734.208L730.106 199.5H727.504L723.407 187.864H725.72ZM736.935 199.676C736.382 199.676 735.884 199.578 735.441 199.381C735.001 199.18 734.653 198.884 734.395 198.494C734.141 198.104 734.015 197.623 734.015 197.051C734.015 196.559 734.106 196.152 734.287 195.83C734.469 195.508 734.717 195.25 735.032 195.057C735.346 194.864 735.7 194.718 736.094 194.619C736.492 194.517 736.903 194.443 737.327 194.398C737.838 194.345 738.253 194.297 738.571 194.256C738.89 194.21 739.121 194.142 739.265 194.051C739.412 193.956 739.486 193.811 739.486 193.614V193.58C739.486 193.152 739.359 192.82 739.106 192.585C738.852 192.35 738.486 192.233 738.009 192.233C737.505 192.233 737.106 192.343 736.81 192.562C736.518 192.782 736.321 193.042 736.219 193.341L734.299 193.068C734.45 192.538 734.7 192.095 735.049 191.739C735.397 191.379 735.823 191.11 736.327 190.932C736.831 190.75 737.388 190.659 737.998 190.659C738.418 190.659 738.837 190.708 739.253 190.807C739.67 190.905 740.051 191.068 740.395 191.295C740.74 191.519 741.016 191.824 741.225 192.21C741.437 192.597 741.543 193.08 741.543 193.659V199.5H739.566V198.301H739.498C739.373 198.544 739.196 198.771 738.969 198.983C738.746 199.191 738.463 199.36 738.123 199.489C737.785 199.614 737.39 199.676 736.935 199.676ZM737.469 198.165C737.882 198.165 738.24 198.083 738.543 197.92C738.846 197.754 739.079 197.534 739.242 197.261C739.409 196.989 739.492 196.691 739.492 196.369V195.341C739.427 195.394 739.318 195.443 739.162 195.489C739.011 195.534 738.84 195.574 738.651 195.608C738.462 195.642 738.274 195.672 738.088 195.699C737.903 195.725 737.742 195.748 737.606 195.767C737.299 195.809 737.024 195.877 736.782 195.972C736.539 196.066 736.348 196.199 736.208 196.369C736.068 196.536 735.998 196.752 735.998 197.017C735.998 197.396 736.136 197.682 736.412 197.875C736.689 198.068 737.041 198.165 737.469 198.165ZM745.348 187.864V199.5H743.291V187.864H745.348ZM752.706 195.83V190.773H754.762V199.5H752.768V197.949H752.677C752.48 198.437 752.156 198.837 751.706 199.148C751.259 199.458 750.707 199.614 750.052 199.614C749.48 199.614 748.975 199.487 748.535 199.233C748.1 198.975 747.759 198.602 747.512 198.114C747.266 197.621 747.143 197.027 747.143 196.33V190.773H749.2V196.011C749.2 196.564 749.351 197.004 749.654 197.33C749.957 197.655 750.355 197.818 750.848 197.818C751.151 197.818 751.444 197.744 751.728 197.597C752.012 197.449 752.245 197.229 752.427 196.938C752.613 196.642 752.706 196.273 752.706 195.83ZM760.421 199.67C759.546 199.67 758.79 199.489 758.154 199.125C757.521 198.758 757.035 198.239 756.694 197.568C756.353 196.894 756.182 196.1 756.182 195.188C756.182 194.29 756.353 193.502 756.694 192.824C757.039 192.142 757.52 191.612 758.137 191.233C758.754 190.85 759.48 190.659 760.313 190.659C760.851 190.659 761.359 190.746 761.836 190.92C762.317 191.091 762.741 191.356 763.109 191.716C763.48 192.076 763.771 192.534 763.984 193.091C764.196 193.644 764.302 194.303 764.302 195.068V195.699H757.148V194.312H762.33C762.326 193.919 762.241 193.568 762.074 193.261C761.908 192.951 761.675 192.706 761.376 192.528C761.08 192.35 760.735 192.261 760.342 192.261C759.921 192.261 759.552 192.364 759.234 192.568C758.915 192.769 758.667 193.034 758.489 193.364C758.315 193.689 758.226 194.047 758.222 194.438V195.648C758.222 196.155 758.315 196.591 758.501 196.955C758.686 197.314 758.946 197.591 759.279 197.784C759.612 197.973 760.003 198.068 760.449 198.068C760.749 198.068 761.02 198.027 761.262 197.943C761.504 197.856 761.715 197.729 761.893 197.562C762.071 197.396 762.205 197.189 762.296 196.943L764.217 197.159C764.095 197.667 763.864 198.11 763.523 198.489C763.186 198.864 762.754 199.155 762.228 199.364C761.701 199.568 761.099 199.67 760.421 199.67Z" fill="white"/>
</g>
<defs>
<filter id="filter0_f_317_325" x="222" y="88.5" width="426" height="396" filterUnits="userSpaceOnUse" color-interpolation-filters="sRGB">
<feFlood flood-opacity="0" result="BackgroundImageFix"/>
<feBlend mode="normal" in="SourceGraphic" in2="BackgroundImageFix" result="shape"/>
<feGaussianBlur stdDeviation="38" result="effect1_foregroundBlur_317_325"/>
</filter>
<filter id="filter3_d_317_325" x="263" y="359.5" width="96" height="96" filterUnits="userSpaceOnUse" color-interpolation-filters="sRGB">
<feFlood flood-opacity="0" result="BackgroundImageFix"/>
<feColorMatrix in="SourceAlpha" type="matrix" values="0 0 0 0 0 0 0 0 0 0 0 0 0 0 0 0 0 0 127 0" result="hardAlpha"/>
<feMorphology radius="24" operator="erode" in="SourceAlpha" result="effect1_dropShadow_317_325"/>
<feOffset dy="4"/>
<feGaussianBlur stdDeviation="25"/>
<feComposite in2="hardAlpha" operator="out"/>
<feColorMatrix type="matrix" values="0 0 0 0 0.027098 0 0 0 0 0.14793 0 0 0 0 0.0814726 0 0 0 0.5 0"/>
<feBlend mode="normal" in2="BackgroundImageFix" result="effect1_dropShadow_317_325"/>
<feBlend mode="normal" in="BackgroundImageFix" in2="effect1_dropShadow_317_325" result="BackgroundImageFix"/>
<feBlend mode="normal" in="SourceGraphic" in2="BackgroundImageFix" result="shape"/>
</filter>
<filter id="filter4_d_317_325" x="387" y="359.5" width="96" height="96" filterUnits="userSpaceOnUse" color-interpolation-filters="sRGB">
<feFlood flood-opacity="0" result="BackgroundImageFix"/>
<feColorMatrix in="SourceAlpha" type="matrix" values="0 0 0 0 0 0 0 0 0 0 0 0 0 0 0 0 0 0 127 0" result="hardAlpha"/>
<feMorphology radius="24" operator="erode" in="SourceAlpha" result="effect1_dropShadow_317_325"/>
<feOffset dy="4"/>
<feGaussianBlur stdDeviation="25"/>
<feComposite in2="hardAlpha" operator="out"/>
<feColorMatrix type="matrix" values="0 0 0 0 0.027098 0 0 0 0 0.14793 0 0 0 0 0.0814726 0 0 0 0.5 0"/>
<feBlend mode="normal" in2="BackgroundImageFix" result="effect1_dropShadow_317_325"/>
<feBlend mode="normal" in="BackgroundImageFix" in2="effect1_dropShadow_317_325" result="BackgroundImageFix"/>
<feBlend mode="normal" in="SourceGraphic" in2="BackgroundImageFix" result="shape"/>
</filter>
<filter id="filter5_d_317_325" x="511" y="359.5" width="96" height="96" filterUnits="userSpaceOnUse" color-interpolation-filters="sRGB">
<feFlood flood-opacity="0" result="BackgroundImageFix"/>
<feColorMatrix in="SourceAlpha" type="matrix" values="0 0 0 0 0 0 0 0 0 0 0 0 0 0 0 0 0 0 127 0" result="hardAlpha"/>
<feMorphology radius="24" operator="erode" in="SourceAlpha" result="effect1_dropShadow_317_325"/>
<feOffset dy="4"/>
<feGaussianBlur stdDeviation="25"/>
<feComposite in2="hardAlpha" operator="out"/>
<feColorMatrix type="matrix" values="0 0 0 0 0.027098 0 0 0 0 0.14793 0 0 0 0 0.0814726 0 0 0 0.5 0"/>
<feBlend mode="normal" in2="BackgroundImageFix" result="effect1_dropShadow_317_325"/>
<feBlend mode="normal" in="BackgroundImageFix" in2="effect1_dropShadow_317_325" result="BackgroundImageFix"/>
<feBlend mode="normal" in="SourceGraphic" in2="BackgroundImageFix" result="shape"/>
</filter>
<filter id="filter6_f_317_325" x="583" y="147.5" width="277" height="262" filterUnits="userSpaceOnUse" color-interpolation-filters="sRGB">
<feFlood flood-opacity="0" result="BackgroundImageFix"/>
<feBlend mode="normal" in="SourceGraphic" in2="BackgroundImageFix" result="shape"/>
<feGaussianBlur stdDeviation="38" result="effect1_foregroundBlur_317_325"/>
</filter>
<clipPath id="clip0_317_325">
<rect width="844" height="681" fill="white"/>
</clipPath>
</defs>
</svg>
