<svg width="24" height="24" viewBox="0 0 24 24" fill="none" xmlns="http://www.w3.org/2000/svg">
<g clip-path="url(#clip0_25394_544)">
<path d="M11.2266 19.3165C11.2521 19.342 11.2788 19.3662 11.3068 19.389C11.3191 19.3991 11.332 19.4078 11.3446 19.4172C11.3604 19.4292 11.376 19.4415 11.3925 19.4524C11.4079 19.4628 11.4239 19.4717 11.4397 19.4812C11.4544 19.49 11.4688 19.4992 11.4839 19.5073C11.5002 19.516 11.5169 19.5233 11.5335 19.5311C11.5491 19.5385 11.5645 19.5464 11.5806 19.553C11.5968 19.5597 11.6133 19.5652 11.6298 19.571C11.6468 19.5772 11.6638 19.5837 11.6813 19.589C11.6978 19.594 11.7145 19.5977 11.7311 19.6018C11.749 19.6063 11.7667 19.6113 11.7849 19.615C11.804 19.6188 11.8233 19.621 11.8426 19.6238C11.8586 19.626 11.8743 19.6291 11.8905 19.6307C11.9263 19.6342 11.9622 19.6361 11.9981 19.6361C12.034 19.6361 12.07 19.6343 12.1058 19.6307C12.1221 19.6291 12.138 19.626 12.1543 19.6237C12.1733 19.621 12.1924 19.6188 12.2113 19.615C12.2298 19.6113 12.2479 19.6062 12.2661 19.6016C12.2823 19.5975 12.2987 19.594 12.3148 19.5891C12.3327 19.5836 12.3499 19.5769 12.3674 19.5707C12.3835 19.5649 12.3997 19.5596 12.4156 19.5531C12.4319 19.5463 12.4476 19.5384 12.4635 19.5308C12.4799 19.5231 12.4964 19.5159 12.5124 19.5073C12.5276 19.4991 12.542 19.4899 12.5568 19.481C12.5726 19.4716 12.5886 19.4627 12.6039 19.4524C12.6201 19.4416 12.6353 19.4295 12.6507 19.418C12.6637 19.4082 12.677 19.3992 12.6897 19.3889C12.7162 19.3671 12.7416 19.344 12.766 19.3199C12.7671 19.3187 12.7684 19.3178 12.7695 19.3167L17.8606 14.2259C18.2866 13.7999 18.2866 13.1092 17.8606 12.6831C17.4346 12.2571 16.7439 12.2572 16.3178 12.6831L13.089 15.9116V1.09091C13.089 0.488436 12.6006 0 11.9981 0C11.3956 0 10.9072 0.488436 10.9072 1.09091V15.9116L7.6787 12.6832C7.25266 12.2572 6.5619 12.2572 6.13593 12.6832C5.7099 13.1092 5.7099 13.7999 6.13593 14.226L11.2266 19.3165Z" fill="white"/>
<path d="M22.9091 21.8164H1.09091C0.488436 21.8164 0 22.3048 0 22.9073C0 23.5098 0.488436 23.9982 1.09091 23.9982H22.9091C23.5116 23.9982 24 23.5098 24 22.9073C24 22.3048 23.5116 21.8164 22.9091 21.8164Z" fill="white"/>
</g>
<defs>
<clipPath id="clip0_25394_544">
<rect width="24" height="24" fill="white"/>
</clipPath>
</defs>
</svg>
